<?xml version="1.0" encoding="utf-8"?>
<!-- Generator: Adobe Illustrator 16.0.0, SVG Export Plug-In . SVG Version: 6.00 Build 0)  -->
<!DOCTYPE svg PUBLIC "-//W3C//DTD SVG 1.1//EN" "http://www.w3.org/Graphics/SVG/1.1/DTD/svg11.dtd">
<svg version="1.1" id="Layer_1" xmlns="http://www.w3.org/2000/svg" xmlns:xlink="http://www.w3.org/1999/xlink" x="0px" y="0px"
	 viewBox="0 0 180 180" enable-background="new 0 0 180 180" xml:space="preserve">
<g>
	<rect fill="#FBCC34" width="180" height="180"/>
	<g>
		<path d="M44.823,46.059c2.35,0,5.276,2.153,11.141,2.153c8.041,0,10.507-9.698,10.507-9.698s-1.326,1.707-4.223,1.707
			c-3.95,0-6.518-2.157-10.776-2.157c-11.217,0-11.943,12.395-11.943,12.395S40.757,46.059,44.823,46.059z M88.322,84.511
			c0,0,0-3.502,7.733-3.502v11.313c0,6.055-2.423,8.354-2.423,8.354s10.957-1.154,10.957-13.653V53.237
			c0-12.619,3.484-14.618,3.484-14.618s-12.019,2.354-12.019,11.728l-0.089,21.861h-1.524
			C83.974,72.208,88.322,84.511,88.322,84.511z M134.818,106.095c-5.921,0-10.626-6.199-20.936-6.199V55.948
			c0-8.843,2.215-9.442,4.754-9.442c2.633,0,3.024,2.525,6.232,2.525c3.209,0,3.215-1.729,4.174-3.881
			c1.41-3.171,4.919-7.095,4.919-7.095s-4.603,1.942-8.026,1.942c-2.135,0-3.42-2.197-8.127-2.197
			c-6.416,0-9.944,7.593-9.944,18.764v43.602c-6.052,0.69-11.925,2.633-16.501,5.482c-2.136-1.628-8.592-5.777-18.965-5.777
			c-1.166,0-2.175,0.048-3.312,0.181V74.387c0.578-0.1,1.197-0.149,1.875-0.149c6.591,0,8.801,5.748,8.801,5.748L87.62,68.8
			c0,0-2.355,0.676-3.012,0.676c-1.851,0-2.99-2.964-8.71-2.964c-2.57,0-4.792,0.711-6.812,2.235V54.916
			c0-6.099,3.083-8.41,5.02-8.41c4.945,0,5.943,4.582,10.33,4.582c4.063,0,3.953-2.51,5.348-5.16
			c1.835-3.486,6.416-7.309,6.416-7.309s-5.526,1.379-8.373,1.379c-1.575,0-5.896-1.934-8.336-1.934
			c-10.066,0-15.986,7.008-15.986,18.5v43.487c-11.622,0-26.529,17.312-26.529,17.312s10.411-8.15,26.671-8.15
			c12.446,0,20.066,4.398,20.066,4.398s8.597-5.209,19.396-5.209c14.449,0,16.161,8.961,30.283,8.961
			c10.696,0,10.412-15.06,10.412-15.06S139.824,106.095,134.818,106.095z M49.495,91.39c0,11.197-3.14,14.052-3.14,14.052
			s11.67-4.066,11.67-18.614V63.866c0-11.196,2.788-13.589,2.788-13.589s-11.228,1.319-11.228,11.401v7.258h-3.322
			c-3.503,0-6.363,1.854-6.363,6.56c0,4.698,3.4,6.644,3.4,6.644s-0.335-4.218,3.447-4.218h2.748V91.39z"/>
		<g>
			<path d="M43.038,141.906h-6.355V128.71l-0.487-1.078h7.42l-0.578,1.941H38.74v3.979h4.875l-0.578,1.941H38.74v4.471h4.875
				L43.038,141.906z"/>
			<path d="M54.359,141.906l-1.356-3.921h-4.632l-0.975,2.843l0.319,1.078h-2.423l4.542-13.195l-0.366-1.078h2.225l4.907,14.273
				H54.359z M50.702,131.24l-1.661,4.824h3.321L50.702,131.24z"/>
			<path d="M65.605,137.495c0,0.731-0.141,1.402-0.419,2.01c-0.28,0.607-0.663,1.088-1.15,1.44l-0.914,0.667
				c-0.54,0.393-1.123,0.588-1.753,0.588c-0.558,0-1.11-0.099-1.653-0.294s-1.044-0.51-1.5-0.94l0.702-2.314
				c0.496,0.471,1.004,0.863,1.523,1.177c0.519,0.313,1.096,0.471,1.737,0.471c0.234,0,0.462-0.053,0.686-0.157
				c0.417-0.496,0.625-1.104,0.625-1.823c0-0.652-0.127-1.159-0.381-1.52c-0.254-0.359-0.569-0.644-0.945-0.854
				c-0.375-0.209-0.786-0.388-1.234-0.538c-0.447-0.15-0.858-0.356-1.234-0.618c-0.375-0.261-0.691-0.613-0.945-1.059
				c-0.254-0.444-0.381-1.071-0.381-1.883c0-0.692,0.127-1.329,0.381-1.91c0.254-0.582,0.615-1.043,1.083-1.383
				c0.151-0.118,0.307-0.232,0.465-0.344c0.157-0.11,0.312-0.226,0.465-0.343c0.487-0.354,1.02-0.529,1.6-0.529
				c0.519,0,1.029,0.102,1.532,0.304c0.503,0.203,0.968,0.494,1.394,0.872l-0.686,2.295c-0.427-0.418-0.905-0.781-1.433-1.089
				c-0.529-0.307-1.067-0.461-1.615-0.461c-0.172,0-0.355,0.046-0.548,0.138c-0.172,0.209-0.308,0.457-0.404,0.744
				c-0.098,0.288-0.145,0.583-0.145,0.883c0,0.628,0.127,1.104,0.381,1.432c0.252,0.327,0.571,0.592,0.952,0.794
				c0.381,0.203,0.794,0.382,1.241,0.539c0.448,0.158,0.862,0.373,1.243,0.646c0.379,0.275,0.698,0.647,0.952,1.118
				C65.478,136.024,65.605,136.671,65.605,137.495z"/>
			<path d="M75.448,129.592h-2.5v12.313h-2.058v-12.313h-3.077l0.58-1.96h7.635L75.448,129.592z"/>
			<path d="M89.497,141.906h-5.669V128.71l-0.487-1.078h2.545v12.313h4.206L89.497,141.906z"/>
			<path d="M103.712,134.417c0,1.307-0.238,2.493-0.715,3.558c-0.478,1.065-1.15,1.933-2.013,2.599
				c-0.151,0.117-0.305,0.234-0.456,0.354c-0.153,0.117-0.305,0.229-0.457,0.333c-0.448,0.326-0.908,0.565-1.379,0.716
				c-0.473,0.149-0.963,0.225-1.471,0.225c-0.771,0-1.498-0.18-2.179-0.539c-0.681-0.358-1.272-0.858-1.776-1.499
				c-0.501-0.641-0.898-1.39-1.188-2.245c-0.289-0.856-0.435-1.788-0.435-2.794c0-1.295,0.239-2.474,0.718-3.539
				c0.477-1.065,1.146-1.932,2.01-2.599c0.153-0.117,0.305-0.234,0.458-0.353c0.151-0.118,0.305-0.229,0.456-0.333
				c0.874-0.641,1.824-0.961,2.849-0.961c0.772,0,1.499,0.18,2.18,0.539s1.272,0.856,1.775,1.489
				c0.503,0.635,0.899,1.383,1.188,2.246C103.568,132.475,103.712,133.41,103.712,134.417z M101.61,135.123
				c0-0.798-0.108-1.553-0.327-2.266c-0.219-0.712-0.524-1.333-0.914-1.862c-0.392-0.529-0.854-0.95-1.387-1.265
				c-0.533-0.313-1.119-0.471-1.76-0.471c-0.294,0-0.585,0.026-0.869,0.079c-0.283,0.053-0.559,0.183-0.822,0.392
				c-0.305,0.235-0.57,0.529-0.793,0.882c-0.223,0.354-0.408,0.74-0.555,1.158c-0.148,0.418-0.258,0.853-0.328,1.303
				c-0.07,0.451-0.107,0.899-0.107,1.344c0,0.797,0.109,1.552,0.328,2.264c0.219,0.713,0.523,1.334,0.915,1.863
				c0.39,0.529,0.853,0.951,1.386,1.265c0.534,0.313,1.119,0.471,1.759,0.471c0.296,0,0.585-0.022,0.868-0.068
				c0.285-0.046,0.559-0.174,0.824-0.383c0.305-0.235,0.568-0.532,0.791-0.893c0.225-0.358,0.41-0.748,0.558-1.165
				c0.146-0.42,0.256-0.854,0.327-1.306C101.575,136.014,101.61,135.566,101.61,135.123z"/>
			<path d="M112.978,137.495c0,0.731-0.14,1.402-0.42,2.01c-0.278,0.607-0.662,1.088-1.15,1.44l-0.914,0.667
				c-0.537,0.393-1.123,0.588-1.752,0.588c-0.56,0-1.109-0.099-1.652-0.294c-0.545-0.195-1.045-0.51-1.502-0.94l0.701-2.314
				c0.498,0.471,1.006,0.863,1.523,1.177c0.519,0.313,1.098,0.471,1.736,0.471c0.235,0,0.463-0.053,0.687-0.157
				c0.417-0.496,0.624-1.104,0.624-1.823c0-0.652-0.127-1.159-0.381-1.52c-0.254-0.359-0.567-0.644-0.943-0.854
				c-0.376-0.209-0.789-0.388-1.234-0.538c-0.447-0.15-0.859-0.356-1.235-0.618c-0.374-0.261-0.689-0.613-0.944-1.059
				c-0.254-0.444-0.381-1.071-0.381-1.883c0-0.692,0.127-1.329,0.381-1.91c0.255-0.582,0.615-1.043,1.082-1.383
				c0.152-0.118,0.308-0.232,0.465-0.344c0.158-0.11,0.313-0.226,0.465-0.343c0.486-0.354,1.021-0.529,1.6-0.529
				c0.519,0,1.028,0.102,1.531,0.304c0.504,0.203,0.969,0.494,1.395,0.872l-0.686,2.295c-0.427-0.418-0.904-0.781-1.434-1.089
				c-0.527-0.307-1.064-0.461-1.613-0.461c-0.174,0-0.357,0.046-0.55,0.138c-0.173,0.209-0.306,0.457-0.403,0.744
				c-0.096,0.288-0.145,0.583-0.145,0.883c0,0.628,0.127,1.104,0.381,1.432s0.57,0.592,0.952,0.794
				c0.382,0.203,0.796,0.382,1.243,0.539c0.445,0.158,0.859,0.373,1.24,0.646c0.382,0.275,0.698,0.647,0.953,1.118
				C112.851,136.024,112.978,136.671,112.978,137.495z"/>
		</g>
		<g>
			<path d="M127.826,136.216h-4.037v5.901h-2.058v-13.194l-0.487-1.079h7.161l-0.579,1.941h-4.037v4.47h4.616L127.826,136.216z"/>
			<path d="M140.916,142.118v-10.077l-3.308,5.803h-0.976l-3.307-5.784v10.059h-1.629v-13.02l-0.686-1.254h2.514l3.855,6.765
				l3.855-6.765h1.736v14.273H140.916z"/>
		</g>
	</g>
</g>
</svg>
